<?xml version="1.0" encoding="utf-8"?>
<!-- Generator: Adobe Illustrator 16.0.0, SVG Export Plug-In . SVG Version: 6.00 Build 0)  -->
<!DOCTYPE svg PUBLIC "-//W3C//DTD SVG 1.1//EN" "http://www.w3.org/Graphics/SVG/1.1/DTD/svg11.dtd">
<svg version="1.1" id="Layer_1" xmlns="http://www.w3.org/2000/svg" xmlns:xlink="http://www.w3.org/1999/xlink" x="0px" y="0px"
	 width="185px" height="188px" viewBox="0 0 185 188" enable-background="new 0 0 185 188" xml:space="preserve">
<g>
	<line fill="none" x1="-34.089" y1="-8097.5" x2="-34.089" y2="8285.5"/>
	<line fill="none" x1="0.828" y1="-8097.5" x2="0.828" y2="8285.5"/>
	<line fill="none" x1="183.5" y1="-8097.5" x2="183.5" y2="8285.5"/>
	
		<radialGradient id="SVGID_1_" cx="3.5396" cy="1012.3828" r="20.1136" gradientTransform="matrix(0.498 0 0 0.498 15.8475 -328.3509)" gradientUnits="userSpaceOnUse">
		<stop  offset="0" style="stop-color:#FFCF4F"/>
		<stop  offset="1" style="stop-color:#F4C236"/>
	</radialGradient>
	<path fill="url(#SVGID_1_)" d="M8.896,186.984h6.791c1.607,0,3.604-1.128,4.432-2.511l5.72-9.521
		c0.677-1.396,0.653-3.426-0.119-4.713l-3.378-5.592L8.896,186.984z"/>
	
		<radialGradient id="SVGID_2_" cx="-8.5117" cy="1002.1709" r="27.6567" gradientTransform="matrix(0.498 0 0 0.498 15.8475 -328.3509)" gradientUnits="userSpaceOnUse">
		<stop  offset="0" style="stop-color:#08A960"/>
		<stop  offset="1" style="stop-color:#07914B"/>
	</radialGradient>
	<path fill="url(#SVGID_2_)" d="M16.197,159.498l-15.102,25.25c-0.583,1.247,0.023,2.236,1.521,2.236h6.281l13.446-22.335
		l-6.146-10.173C17.025,155.854,17.025,158.114,16.197,159.498"/>
	
		<radialGradient id="SVGID_3_" cx="0.9395" cy="962.4893" r="40.5378" gradientTransform="matrix(0.498 0 0 0.498 15.8475 -328.3509)" gradientUnits="userSpaceOnUse">
		<stop  offset="0" style="stop-color:#567FC0"/>
		<stop  offset="1" style="stop-color:#557FC0"/>
	</radialGradient>
	<path fill="url(#SVGID_3_)" d="M2.616,126.984c-1.613,0-2.254,1.133-1.424,2.511l24.529,40.745
		c0.772,1.288,0.795,3.317,0.119,4.713l5.963-9.925L8.9,126.984H2.616z"/>
	
		<radialGradient id="SVGID_4_" cx="13.0034" cy="952.5254" r="33.0574" gradientTransform="matrix(0.498 0 0 0.498 15.8475 -328.3509)" gradientUnits="userSpaceOnUse">
		<stop  offset="0" style="stop-color:#E14C40"/>
		<stop  offset="1" style="stop-color:#CD392D"/>
	</radialGradient>
	<path fill="url(#SVGID_4_)" d="M8.9,126.984l22.903,38.045l3.321-5.529c0.83-1.386,0.83-3.646,0-5.022l-15.004-24.981
		c-0.829-1.379-2.825-2.512-4.432-2.512H8.9z"/>
	<g>
		<path fill="#E6E6E5" d="M56.877,170.97l-1.283-4h-4.913l-1.257,4h-2.215l4.808-13h2.285l4.808,13H56.877z M55.041,164.97
			l-1.204-3.43c-0.088-0.234-0.209-0.57-0.365-1.074s-0.262-0.855-0.321-1.09c-0.158,0.721-0.39,1.449-0.694,2.305l-1.16,3.289
			H55.041z"/>
		<path fill="#E6E6E5" d="M64.617,160.587c0.416,0,0.759,0.029,1.028,0.088l-0.202,1.926c-0.293-0.07-0.598-0.105-0.914-0.105
			c-0.826,0-1.372,0.27-1.884,0.809S62,164.542,62,165.403v5.566h-2v-10h1.303l0.272,2h0.105c0.322-1,0.743-1.287,1.261-1.627
			S64.02,160.587,64.617,160.587z"/>
		<path fill="#E6E6E5" d="M72.629,170.97l-0.413-2h-0.07c-0.469,1-0.94,1.076-1.415,1.289s-1.084,0.361-1.828,0.361
			c-0.955,0-1.701-0.238-2.237-0.754s-0.804-1.234-0.804-2.178c0-1.002,0.372-1.754,1.116-2.264s1.849-0.785,3.373-0.832l1.65-0.051
			v-0.518c0-0.621-0.116-1.086-0.406-1.395c-0.29-0.307-0.726-0.461-1.335-0.461c-0.498,0-0.968,0.074-1.425,0.221
			s-0.893,0.318-1.314,0.518l-0.667-1.477c0.527-0.275,1.105-0.484,1.732-0.629c0.627-0.143,1.219-0.215,1.776-0.215
			c1.236,0,2.117,0.27,2.747,0.809S74,162.782,74,163.937v7.033H72.629z M69.553,169.077c0.75,0,1.332-0.209,1.786-0.629
			c0.454-0.418,0.661-1.006,0.661-1.762v-0.844l-1.228,0.053c-0.973,0.035-1.67,0.197-2.113,0.488
			c-0.442,0.289-0.658,0.734-0.658,1.332c0,0.434,0.131,0.768,0.389,1.006C68.648,168.958,69.038,169.077,69.553,169.077z"/>
		<path fill="#E6E6E5" d="M80.008,170.659c-1.471,0-2.588-0.428-3.353-1.287c-0.765-0.857-1.147-2.09-1.147-3.695
			c0-1.635,0.4-2.893,1.2-3.771s1.956-1.318,3.467-1.318c1.025,0,1.948,0.191,2.769,0.572l-0.624,1.66
			c-0.873-0.34-1.594-0.51-2.162-0.51c-1.682,0-2.522,1.117-2.522,3.35c0,1.09,0.209,1.908,0.628,2.455
			c0.419,0.549,1.175,0.822,1.984,0.822c0.92,0,1.753-0.229,2.753-0.686v1.803c-1,0.217-0.906,0.371-1.324,0.465
			C81.256,170.612,80.606,170.659,80.008,170.659z"/>
		<path fill="#E6E6E5" d="M90.182,170.97l-0.412-2H89.7c-0.469,1-0.941,1.076-1.416,1.289s-1.084,0.361-1.828,0.361
			c-0.955,0-1.7-0.238-2.236-0.754s-0.805-1.234-0.805-2.178c0-1.002,0.373-1.754,1.117-2.264s2.071-0.785,3.595-0.832L90,164.542
			v-0.518c0-0.621-0.34-1.086-0.63-1.395c-0.29-0.307-0.837-0.461-1.447-0.461c-0.498,0-1.023,0.074-1.48,0.221
			s-0.921,0.318-1.343,0.518l-0.68-1.477c0.527-0.275,1.097-0.484,1.724-0.629c0.627-0.143,1.216-0.215,1.772-0.215
			c1.236,0,2.339,0.27,2.969,0.809c0.629,0.539,1.113,1.387,1.113,2.541v7.033H90.182z M87.106,169.077
			c0.75,0,1.556-0.209,2.01-0.629C89.57,168.03,90,167.442,90,166.687v-0.844l-1.451,0.053c-0.973,0.035-1.782,0.197-2.225,0.488
			c-0.442,0.289-0.715,0.734-0.715,1.332c0,0.434,0.104,0.768,0.361,1.006C86.229,168.958,86.59,169.077,87.106,169.077z"/>
		<path fill="#E6E6E5" d="M92.598,174.808c-0.621,0-0.598-0.072-1.597-0.219v-1.635c0,0.105,1.035,0.158,1.451,0.158
			c0.879,0,1.549-0.498,1.549-1.494V160.97h2v10.789c0,1.002-0.434,1.76-0.959,2.275C94.518,174.55,93.588,174.808,92.598,174.808z
			 M93.52,158.188c0-0.369,0.1-0.654,0.303-0.853c0.201-0.199,0.49-0.299,0.865-0.299c0.363,0,0.646,0.1,0.848,0.299
			c0.203,0.198,0.305,0.483,0.305,0.853c0,0.352-0.102,0.627-0.305,0.83c-0.201,0.201-0.484,0.303-0.848,0.303
			c-0.375,0-0.664-0.102-0.865-0.303C93.619,158.815,93.52,158.54,93.52,158.188z"/>
		<path fill="#E6E6E5" d="M104.615,170.97l-0.289-2h-0.105c-0.287,1-0.695,0.926-1.227,1.184c-0.529,0.258-1.135,0.447-1.814,0.447
			c-1.178,0-1.893-0.264-2.473-0.85S98,168.308,98,167.118v-6.148h2v5.787c0,0.744,0.031,1.303,0.336,1.674
			c0.305,0.373,0.719,0.559,1.369,0.559c0.867,0,1.391-0.26,1.799-0.777c0.406-0.52,0.496-1.387,0.496-2.605v-4.637h2v10H104.615z"
			/>
		<path fill="#E6E6E5" d="M120,170.97h-9v-2.051l3.502-3.33c0.979-1.002,1.721-1.713,2.041-2.133c0.318-0.418,0.6-0.813,0.746-1.182
			s0.242-0.764,0.242-1.186c0-0.58-0.162-1.037-0.512-1.371c-0.348-0.334-0.824-0.502-1.439-0.502c-0.492,0-0.965,0.092-1.424,0.273
			c-0.461,0.182-0.992,0.51-1.596,0.984l-1.115-1.363c0.715-0.604,1.41-1.031,2.084-1.283s1.393-0.376,2.154-0.376
			c1.195,0,2.152,0.31,2.873,0.935c0.721,0.623,1.082,1.463,1.082,2.518c0,0.58-0.105,1.131-0.313,1.652
			c-0.209,0.521-0.527,1.059-0.959,1.613c-0.43,0.553-1.139,1.303-2.141,2.246L114,168.577v0.393h6V170.97z"/>
		<path fill="#E6E6E5" d="M129.461,164.06c0,2.232-0.359,3.891-1.076,4.975c-0.719,1.084-1.816,1.625-3.293,1.625
			c-1.43,0-2.514-0.559-3.252-1.678s-1.107-2.76-1.107-4.922c0-2.268,0.359-3.939,1.078-5.016c0.717-1.074,1.811-1.61,3.281-1.61
			c1.436,0,2.523,0.562,3.262,1.687S129.461,161.892,129.461,164.06z M122.824,164.06c0,1.752,0.182,3.002,0.541,3.752
			c0.361,0.75,0.936,1.125,1.727,1.125s1.371-0.381,1.736-1.143c0.367-0.762,0.549-2.006,0.549-3.734
			c0-1.723-0.182-2.969-0.549-3.74c-0.365-0.77-0.945-1.156-1.736-1.156s-1.365,0.379-1.727,1.135
			C123.006,161.054,122.824,162.308,122.824,164.06z"/>
		<path fill="#E6E6E5" d="M136,170.97h-2v-8.783c0-0.99,0.086-1.775,0.133-2.355c-0.135,0.141-0.27,0.297-0.467,0.467
			c-0.195,0.17-0.838,0.709-1.957,1.617l-1.029-1.143l3.787-2.803H136V170.97z"/>
		<path fill="#E6E6E5" d="M149,167.97h-2v3h-2v-3h-6v-1.881l5.922-8.119H147v8h2V167.97z M145,165.97v-3.229
			c0-1.148-0.049-1.771,0.01-2.771h-0.07c-0.164,0-0.422,0.832-0.773,1.383l-3.189,4.617H145z"/>
	</g>
	<g>
		<path fill="#E6E6E5" d="M52.911,144.801h5.613v7.086c-1.524,0.527-3.199,0.791-5.026,0.791c-2.004,0-3.554-0.588-4.647-1.763
			c-1.094-1.175-1.641-2.851-1.641-5.026c0-2.122,0.599-3.773,1.797-4.955c1.198-1.181,2.876-1.771,5.035-1.771
			c0.818,0,1.59,0.078,2.317,0.233c0.727,0.156,1.359,0.354,1.899,0.594l-1.112,2.788c-0.937-0.468-1.966-0.701-3.086-0.701
			c-1.026,0-1.819,0.337-2.379,1.011c-0.561,0.675-0.841,1.639-0.841,2.892c0,1.229,0.253,2.166,0.761,2.81
			c0.507,0.645,1.238,0.967,2.192,0.967c0.522,0,1.002-0.051,1.441-0.152v-2.06h-2.322V144.801z"/>
		<path fill="#E6E6E5" d="M71.303,145.646c0,2.194-0.598,3.885-1.792,5.072c-1.195,1.187-2.875,1.78-5.039,1.78h-4.208v-13.147
			h4.501c2.087,0,3.699,0.54,4.834,1.619C70.735,142.049,71.303,143.607,71.303,145.646z M67.656,145.771
			c0-1.205-0.236-2.098-0.707-2.68c-0.472-0.581-1.188-0.872-2.148-0.872h-1.023v7.364h0.783c1.067,0,1.851-0.313,2.349-0.939
			C67.407,148.019,67.656,147.061,67.656,145.771z"/>
		<path fill="#E6E6E5" d="M77.944,144.801h5.613v7.086c-1.524,0.527-3.199,0.791-5.026,0.791c-2.004,0-3.554-0.588-4.647-1.763
			c-1.094-1.175-1.641-2.851-1.641-5.026c0-2.122,0.599-3.773,1.797-4.955c1.198-1.181,2.876-1.771,5.035-1.771
			c0.818,0,1.59,0.078,2.317,0.233c0.727,0.156,1.359,0.354,1.899,0.594l-1.112,2.788c-0.937-0.468-1.966-0.701-3.086-0.701
			c-1.026,0-1.819,0.337-2.379,1.011c-0.561,0.675-0.841,1.639-0.841,2.892c0,1.229,0.253,2.166,0.761,2.81
			c0.507,0.645,1.238,0.967,2.192,0.967c0.522,0,1.002-0.051,1.441-0.152v-2.06h-2.322V144.801z"/>
		<path fill="#E6E6E5" d="M100.158,145.646c0,2.194-0.598,3.885-1.793,5.072c-1.195,1.187-2.875,1.78-5.039,1.78h-4.208v-13.147
			h4.501c2.088,0,3.699,0.54,4.836,1.619C99.59,142.049,100.158,143.607,100.158,145.646z M96.51,145.771
			c0-1.205-0.234-2.098-0.707-2.68c-0.471-0.581-1.188-0.872-2.146-0.872h-1.023v7.364h0.783c1.066,0,1.85-0.313,2.348-0.939
			C96.262,148.019,96.51,147.061,96.51,145.771z"/>
		<path fill="#E6E6E5" d="M106.238,152.678c-1.678,0-2.982-0.451-3.91-1.354s-1.393-2.187-1.393-3.854
			c0-1.72,0.432-3.04,1.291-3.961c0.859-0.92,2.088-1.38,3.682-1.38c1.52,0,2.691,0.4,3.52,1.2c0.826,0.801,1.24,1.953,1.24,3.458
			v1.564h-6.219c0.023,0.569,0.23,1.016,0.619,1.34c0.389,0.323,0.918,0.485,1.588,0.485c0.611,0,1.172-0.059,1.686-0.176
			c0.514-0.116,1.068-0.315,1.668-0.598v2.527c-0.547,0.281-1.109,0.477-1.689,0.584
			C107.738,152.624,107.045,152.678,106.238,152.678z M106.033,144.521c-0.408,0-0.752,0.131-1.027,0.392s-0.438,0.67-0.484,1.228
			h2.988c-0.012-0.492-0.15-0.885-0.414-1.179C106.832,144.669,106.479,144.521,106.033,144.521z"/>
		<path fill="#E6E6E5" d="M114.365,152.498l-3.844-10.188h3.629l1.709,6.024c0.006,0.03,0.018,0.081,0.035,0.153
			s0.035,0.157,0.053,0.256c0.02,0.1,0.035,0.204,0.049,0.315c0.016,0.11,0.023,0.214,0.023,0.31h0.063
			c0-0.312,0.053-0.65,0.16-1.016l1.787-6.043h3.621l-3.844,10.188H114.365z"/>
		<path fill="#E6E6E5" d="M125.605,152.498h-3.461v-13.147h7.686v2.851h-4.225v2.51h3.896v2.85h-3.896V152.498z"/>
		<path fill="#E6E6E5" d="M135.715,152.678c-1.678,0-2.98-0.451-3.908-1.354c-0.93-0.902-1.393-2.187-1.393-3.854
			c0-1.72,0.43-3.04,1.289-3.961c0.861-0.92,2.088-1.38,3.684-1.38c1.518,0,2.689,0.4,3.518,1.2c0.828,0.801,1.24,1.953,1.24,3.458
			v1.564h-6.217c0.023,0.569,0.23,1.016,0.617,1.34c0.389,0.323,0.918,0.485,1.588,0.485c0.611,0,1.174-0.059,1.686-0.176
			c0.514-0.116,1.07-0.315,1.668-0.598v2.527c-0.545,0.281-1.107,0.477-1.689,0.584
			C137.215,152.624,136.521,152.678,135.715,152.678z M135.512,144.521c-0.41,0-0.752,0.131-1.027,0.392
			c-0.277,0.261-0.438,0.67-0.486,1.228h2.99c-0.014-0.492-0.15-0.885-0.414-1.179C136.311,144.669,135.955,144.521,135.512,144.521
			z"/>
		<path fill="#E6E6E5" d="M148.984,149.368c0,1.092-0.369,1.916-1.104,2.474c-0.736,0.557-1.791,0.836-3.166,0.836
			c-0.748,0-1.396-0.041-1.949-0.121c-0.551-0.081-1.115-0.229-1.689-0.445v-2.814c0.539,0.239,1.131,0.438,1.773,0.593
			c0.645,0.156,1.219,0.234,1.723,0.234c0.752,0,1.129-0.174,1.129-0.521c0-0.18-0.105-0.341-0.316-0.481
			c-0.209-0.141-0.822-0.415-1.836-0.822c-0.926-0.384-1.572-0.82-1.939-1.309s-0.551-1.107-0.551-1.857
			c0-0.947,0.361-1.685,1.084-2.212c0.725-0.527,1.746-0.791,3.07-0.791c0.664,0,1.287,0.073,1.871,0.22
			c0.584,0.147,1.191,0.361,1.82,0.644l-0.943,2.266c-0.463-0.21-0.951-0.388-1.469-0.535c-0.516-0.146-0.936-0.22-1.262-0.22
			c-0.57,0-0.855,0.141-0.855,0.422c0,0.175,0.1,0.323,0.299,0.445c0.199,0.123,0.773,0.373,1.721,0.751
			c0.707,0.294,1.232,0.582,1.58,0.863c0.346,0.282,0.602,0.613,0.764,0.994C148.902,148.36,148.984,148.823,148.984,149.368z"/>
		<path fill="#E6E6E5" d="M154.939,149.899c0.469,0,1.029-0.117,1.682-0.352v2.563c-0.469,0.204-0.914,0.349-1.338,0.436
			c-0.426,0.087-0.922,0.131-1.49,0.131c-1.168,0-2.012-0.289-2.527-0.868c-0.516-0.578-0.773-1.467-0.773-2.666v-4.199h-1.219
			v-1.43l1.549-1.106l0.898-2.14h2.275v2.041h2.475v2.635h-2.475v3.966C153.996,149.569,154.311,149.899,154.939,149.899z"/>
		<path fill="#E6E6E5" d="M173.879,152.498h-4.607l-4.75-9.263h-0.08c0.111,1.457,0.168,2.569,0.168,3.337v5.926h-3.113v-13.147
			h4.59l4.732,9.137h0.055c-0.084-1.325-0.125-2.389-0.125-3.192v-5.944h3.131V152.498z"/>
		<path fill="#E6E6E5" d="M183.5,152.498h-7.721v-13.147h7.721v2.851h-4.207v2.068h3.896v2.851h-3.896v2.482h4.207V152.498z"/>
	</g>
</g>
<g>
	
		<radialGradient id="SVGID_5_" cx="3.5391" cy="885.9043" r="20.1156" gradientTransform="matrix(0.498 0 0 0.498 15.8475 -328.3509)" gradientUnits="userSpaceOnUse">
		<stop  offset="0" style="stop-color:#CCCCCC"/>
		<stop  offset="1" style="stop-color:#C0C0C0"/>
	</radialGradient>
	<path fill="url(#SVGID_5_)" d="M8.896,124h6.791c1.607,0,3.604-1.131,4.432-2.514l5.72-9.523c0.677-1.395,0.653-3.426-0.119-4.713
		l-3.378-5.59L8.896,124z"/>
	
		<radialGradient id="SVGID_6_" cx="-8.5127" cy="875.6914" r="27.6595" gradientTransform="matrix(0.498 0 0 0.498 15.8475 -328.3509)" gradientUnits="userSpaceOnUse">
		<stop  offset="0" style="stop-color:#A0A0A0"/>
		<stop  offset="1" style="stop-color:#7B7B7B"/>
	</radialGradient>
	<path fill="url(#SVGID_6_)" d="M16.195,96.506L1.094,121.76C0.51,123.008,1.117,124,2.615,124h6.281l13.446-22.338l-6.146-10.175
		C17.025,92.865,17.025,95.123,16.195,96.506"/>
	
		<radialGradient id="SVGID_7_" cx="0.9385" cy="836.0088" r="40.5343" gradientTransform="matrix(0.498 0 0 0.498 15.8475 -328.3509)" gradientUnits="userSpaceOnUse">
		<stop  offset="0" style="stop-color:#848484"/>
		<stop  offset="1" style="stop-color:#838383"/>
	</radialGradient>
	<path fill="url(#SVGID_7_)" d="M2.615,64c-1.613,0-2.254,1.129-1.424,2.507L25.72,107.25c0.772,1.289,0.795,3.316,0.119,4.713
		l5.963-9.922L8.9,64H2.615z"/>
	
		<radialGradient id="SVGID_8_" cx="13.0029" cy="826.0469" r="33.0549" gradientTransform="matrix(0.498 0 0 0.498 15.8475 -328.3509)" gradientUnits="userSpaceOnUse">
		<stop  offset="0" style="stop-color:#626262"/>
		<stop  offset="1" style="stop-color:#474747"/>
	</radialGradient>
	<path fill="url(#SVGID_8_)" d="M8.9,64l22.903,38.041l3.321-5.531c0.83-1.385,0.83-3.646,0-5.022L20.12,66.51
		C19.292,65.13,17.294,64,15.688,64H8.9z"/>
	<g>
		<path fill="#4E4E4E" d="M56.877,107.984l-1.283-4h-4.913l-1.257,4h-2.215l4.808-13h2.285l4.808,13H56.877z M55.041,101.984
			l-1.204-3.43c-0.088-0.234-0.209-0.57-0.365-1.074s-0.262-0.855-0.321-1.09c-0.158,0.721-0.39,1.449-0.694,2.305l-1.16,3.289
			H55.041z"/>
		<path fill="#4E4E4E" d="M64.617,97.602c0.416,0,0.759,0.029,1.028,0.088l-0.202,1.926c-0.293-0.07-0.598-0.105-0.914-0.105
			c-0.826,0-1.372,0.27-1.884,0.809S62,101.557,62,102.418v5.566h-2v-10h1.303l0.272,2h0.105c0.322-1,0.743-1.287,1.261-1.627
			S64.02,97.602,64.617,97.602z"/>
		<path fill="#4E4E4E" d="M72.629,107.984l-0.413-2h-0.07c-0.469,1-0.94,1.076-1.415,1.289s-1.084,0.361-1.828,0.361
			c-0.955,0-1.701-0.238-2.237-0.754s-0.804-1.234-0.804-2.178c0-1.002,0.372-1.754,1.116-2.264s1.849-0.785,3.373-0.832l1.65-0.051
			v-0.518c0-0.621-0.116-1.086-0.406-1.395c-0.29-0.307-0.726-0.461-1.335-0.461c-0.498,0-0.968,0.074-1.425,0.221
			s-0.893,0.318-1.314,0.518l-0.667-1.477c0.527-0.275,1.105-0.484,1.732-0.629c0.627-0.143,1.219-0.215,1.776-0.215
			c1.236,0,2.117,0.27,2.747,0.809S74,99.797,74,100.951v7.033H72.629z M69.553,106.092c0.75,0,1.332-0.209,1.786-0.629
			c0.454-0.418,0.661-1.006,0.661-1.762v-0.844l-1.228,0.053c-0.973,0.035-1.67,0.197-2.113,0.488
			c-0.442,0.289-0.658,0.734-0.658,1.332c0,0.434,0.131,0.768,0.389,1.006C68.648,105.973,69.038,106.092,69.553,106.092z"/>
		<path fill="#4E4E4E" d="M80.008,107.674c-1.471,0-2.588-0.428-3.353-1.287c-0.765-0.857-1.147-2.09-1.147-3.695
			c0-1.635,0.4-2.893,1.2-3.771s1.956-1.318,3.467-1.318c1.025,0,1.948,0.191,2.769,0.572l-0.624,1.66
			c-0.873-0.34-1.594-0.51-2.162-0.51c-1.682,0-2.522,1.117-2.522,3.35c0,1.09,0.209,1.908,0.628,2.455
			c0.419,0.549,1.175,0.822,1.984,0.822c0.92,0,1.753-0.229,2.753-0.686v1.803c-1,0.217-0.906,0.371-1.324,0.465
			C81.256,107.627,80.606,107.674,80.008,107.674z"/>
		<path fill="#4E4E4E" d="M90.182,107.984l-0.412-2H89.7c-0.469,1-0.941,1.076-1.416,1.289s-1.084,0.361-1.828,0.361
			c-0.955,0-1.7-0.238-2.236-0.754s-0.805-1.234-0.805-2.178c0-1.002,0.373-1.754,1.117-2.264s2.071-0.785,3.595-0.832L90,101.557
			v-0.518c0-0.621-0.34-1.086-0.63-1.395c-0.29-0.307-0.837-0.461-1.447-0.461c-0.498,0-1.023,0.074-1.48,0.221
			s-0.921,0.318-1.343,0.518l-0.68-1.477c0.527-0.275,1.097-0.484,1.724-0.629c0.627-0.143,1.216-0.215,1.772-0.215
			c1.236,0,2.339,0.27,2.969,0.809C91.516,98.949,92,99.797,92,100.951v7.033H90.182z M87.106,106.092
			c0.75,0,1.556-0.209,2.01-0.629c0.454-0.418,0.885-1.006,0.885-1.762v-0.844l-1.451,0.053c-0.973,0.035-1.782,0.197-2.225,0.488
			c-0.442,0.289-0.715,0.734-0.715,1.332c0,0.434,0.104,0.768,0.361,1.006C86.229,105.973,86.59,106.092,87.106,106.092z"/>
		<path fill="#4E4E4E" d="M92.598,111.822c-0.621,0-0.598-0.072-1.597-0.219v-1.635c0,0.105,1.035,0.158,1.451,0.158
			c0.879,0,1.549-0.498,1.549-1.494V97.984h2v10.789c0,1.002-0.434,1.76-0.959,2.275C94.518,111.564,93.588,111.822,92.598,111.822z
			 M93.52,95.203c0-0.369,0.1-0.654,0.303-0.853c0.201-0.199,0.49-0.299,0.865-0.299c0.363,0,0.646,0.1,0.848,0.299
			c0.203,0.198,0.305,0.483,0.305,0.853c0,0.352-0.102,0.627-0.305,0.83c-0.201,0.201-0.484,0.303-0.848,0.303
			c-0.375,0-0.664-0.102-0.865-0.303C93.619,95.83,93.52,95.555,93.52,95.203z"/>
		<path fill="#4E4E4E" d="M104.615,107.984l-0.289-2h-0.105c-0.287,1-0.695,0.926-1.227,1.184c-0.529,0.258-1.135,0.447-1.814,0.447
			c-1.178,0-1.893-0.264-2.473-0.85S98,105.322,98,104.133v-6.148h2v5.787c0,0.744,0.031,1.303,0.336,1.674
			c0.305,0.373,0.719,0.559,1.369,0.559c0.867,0,1.391-0.26,1.799-0.777c0.406-0.52,0.496-1.387,0.496-2.605v-4.637h2v10H104.615z"
			/>
		<path fill="#4E4E4E" d="M120,107.984h-9v-2.051l3.502-3.33c0.979-1.002,1.721-1.713,2.041-2.133
			c0.318-0.418,0.6-0.813,0.746-1.182s0.242-0.764,0.242-1.186c0-0.58-0.162-1.037-0.512-1.371
			c-0.348-0.334-0.824-0.502-1.439-0.502c-0.492,0-0.965,0.092-1.424,0.273c-0.461,0.182-0.992,0.51-1.596,0.984l-1.115-1.363
			c0.715-0.604,1.41-1.031,2.084-1.283s1.393-0.376,2.154-0.376c1.195,0,2.152,0.31,2.873,0.935
			c0.721,0.623,1.082,1.463,1.082,2.518c0,0.58-0.105,1.131-0.313,1.652c-0.209,0.521-0.527,1.059-0.959,1.613
			c-0.43,0.553-1.139,1.303-2.141,2.246L114,105.592v0.393h6V107.984z"/>
		<path fill="#4E4E4E" d="M129.461,101.074c0,2.232-0.359,3.891-1.076,4.975c-0.719,1.084-1.816,1.625-3.293,1.625
			c-1.43,0-2.514-0.559-3.252-1.678s-1.107-2.76-1.107-4.922c0-2.268,0.359-3.939,1.078-5.016c0.717-1.074,1.811-1.61,3.281-1.61
			c1.436,0,2.523,0.562,3.262,1.687S129.461,98.906,129.461,101.074z M122.824,101.074c0,1.752,0.182,3.002,0.541,3.752
			c0.361,0.75,0.936,1.125,1.727,1.125s1.371-0.381,1.736-1.143c0.367-0.762,0.549-2.006,0.549-3.734
			c0-1.723-0.182-2.969-0.549-3.74c-0.365-0.77-0.945-1.156-1.736-1.156s-1.365,0.379-1.727,1.135
			C123.006,98.068,122.824,99.322,122.824,101.074z"/>
		<path fill="#4E4E4E" d="M136,107.984h-2v-8.783c0-0.99,0.086-1.775,0.133-2.355c-0.135,0.141-0.27,0.297-0.467,0.467
			c-0.195,0.17-0.838,0.709-1.957,1.617l-1.029-1.143l3.787-2.803H136V107.984z"/>
		<path fill="#4E4E4E" d="M149,104.984h-2v3h-2v-3h-6v-1.881l5.922-8.119H147v8h2V104.984z M145,102.984v-3.229
			c0-1.148-0.049-1.771,0.01-2.771h-0.07c-0.164,0-0.422,0.832-0.773,1.383l-3.189,4.617H145z"/>
	</g>
	<g>
		<path fill="#4E4E4E" d="M52.911,81.815h5.613v7.086c-1.524,0.527-3.199,0.791-5.026,0.791c-2.004,0-3.554-0.588-4.647-1.763
			c-1.094-1.175-1.641-2.851-1.641-5.026c0-2.122,0.599-3.773,1.797-4.955c1.198-1.181,2.876-1.771,5.035-1.771
			c0.818,0,1.59,0.078,2.317,0.233c0.727,0.156,1.359,0.354,1.899,0.594l-1.112,2.788c-0.937-0.468-1.966-0.701-3.086-0.701
			c-1.026,0-1.819,0.337-2.379,1.011c-0.561,0.675-0.841,1.639-0.841,2.892c0,1.229,0.253,2.166,0.761,2.81
			c0.507,0.645,1.238,0.967,2.192,0.967c0.522,0,1.002-0.051,1.441-0.152v-2.06h-2.322V81.815z"/>
		<path fill="#4E4E4E" d="M71.303,82.66c0,2.194-0.598,3.885-1.792,5.072c-1.195,1.187-2.875,1.78-5.039,1.78h-4.208V76.365h4.501
			c2.087,0,3.699,0.54,4.834,1.619C70.735,79.063,71.303,80.622,71.303,82.66z M67.656,82.786c0-1.205-0.236-2.098-0.707-2.68
			c-0.472-0.581-1.188-0.872-2.148-0.872h-1.023v7.364h0.783c1.067,0,1.851-0.313,2.349-0.939
			C67.407,85.033,67.656,84.075,67.656,82.786z"/>
		<path fill="#4E4E4E" d="M77.944,81.815h5.613v7.086c-1.524,0.527-3.199,0.791-5.026,0.791c-2.004,0-3.554-0.588-4.647-1.763
			c-1.094-1.175-1.641-2.851-1.641-5.026c0-2.122,0.599-3.773,1.797-4.955c1.198-1.181,2.876-1.771,5.035-1.771
			c0.818,0,1.59,0.078,2.317,0.233c0.727,0.156,1.359,0.354,1.899,0.594l-1.112,2.788c-0.937-0.468-1.966-0.701-3.086-0.701
			c-1.026,0-1.819,0.337-2.379,1.011c-0.561,0.675-0.841,1.639-0.841,2.892c0,1.229,0.253,2.166,0.761,2.81
			c0.507,0.645,1.238,0.967,2.192,0.967c0.522,0,1.002-0.051,1.441-0.152v-2.06h-2.322V81.815z"/>
		<path fill="#4E4E4E" d="M100.158,82.66c0,2.194-0.598,3.885-1.793,5.072c-1.195,1.187-2.875,1.78-5.039,1.78h-4.208V76.365h4.501
			c2.088,0,3.699,0.54,4.836,1.619C99.59,79.063,100.158,80.622,100.158,82.66z M96.51,82.786c0-1.205-0.234-2.098-0.707-2.68
			c-0.471-0.581-1.188-0.872-2.146-0.872h-1.023v7.364h0.783c1.066,0,1.85-0.313,2.348-0.939
			C96.262,85.033,96.51,84.075,96.51,82.786z"/>
		<path fill="#4E4E4E" d="M106.238,89.692c-1.678,0-2.982-0.451-3.91-1.354s-1.393-2.187-1.393-3.854c0-1.72,0.432-3.04,1.291-3.961
			c0.859-0.92,2.088-1.38,3.682-1.38c1.52,0,2.691,0.4,3.52,1.2c0.826,0.801,1.24,1.953,1.24,3.458v1.564h-6.219
			c0.023,0.569,0.23,1.016,0.619,1.34c0.389,0.323,0.918,0.485,1.588,0.485c0.611,0,1.172-0.059,1.686-0.176
			c0.514-0.116,1.068-0.315,1.668-0.598v2.527c-0.547,0.281-1.109,0.477-1.689,0.584C107.738,89.639,107.045,89.692,106.238,89.692z
			 M106.033,81.536c-0.408,0-0.752,0.131-1.027,0.392s-0.438,0.67-0.484,1.228h2.988c-0.012-0.492-0.15-0.885-0.414-1.179
			C106.832,81.684,106.479,81.536,106.033,81.536z"/>
		<path fill="#4E4E4E" d="M114.365,89.513l-3.844-10.188h3.629l1.709,6.024c0.006,0.03,0.018,0.081,0.035,0.153
			s0.035,0.157,0.053,0.256c0.02,0.1,0.035,0.204,0.049,0.315c0.016,0.11,0.023,0.214,0.023,0.31h0.063
			c0-0.312,0.053-0.65,0.16-1.016l1.787-6.043h3.621l-3.844,10.188H114.365z"/>
		<path fill="#4E4E4E" d="M125.605,89.513h-3.461V76.365h7.686v2.851h-4.225v2.51h3.896v2.85h-3.896V89.513z"/>
		<path fill="#4E4E4E" d="M135.715,89.692c-1.678,0-2.98-0.451-3.908-1.354c-0.93-0.902-1.393-2.187-1.393-3.854
			c0-1.72,0.43-3.04,1.289-3.961c0.861-0.92,2.088-1.38,3.684-1.38c1.518,0,2.689,0.4,3.518,1.2c0.828,0.801,1.24,1.953,1.24,3.458
			v1.564h-6.217c0.023,0.569,0.23,1.016,0.617,1.34c0.389,0.323,0.918,0.485,1.588,0.485c0.611,0,1.174-0.059,1.686-0.176
			c0.514-0.116,1.07-0.315,1.668-0.598v2.527c-0.545,0.281-1.107,0.477-1.689,0.584C137.215,89.639,136.521,89.692,135.715,89.692z
			 M135.512,81.536c-0.41,0-0.752,0.131-1.027,0.392c-0.277,0.261-0.438,0.67-0.486,1.228h2.99c-0.014-0.492-0.15-0.885-0.414-1.179
			C136.311,81.684,135.955,81.536,135.512,81.536z"/>
		<path fill="#4E4E4E" d="M148.984,86.383c0,1.092-0.369,1.916-1.104,2.474c-0.736,0.557-1.791,0.836-3.166,0.836
			c-0.748,0-1.396-0.041-1.949-0.121c-0.551-0.081-1.115-0.229-1.689-0.445v-2.814c0.539,0.239,1.131,0.438,1.773,0.593
			c0.645,0.156,1.219,0.234,1.723,0.234c0.752,0,1.129-0.174,1.129-0.521c0-0.18-0.105-0.341-0.316-0.481
			c-0.209-0.141-0.822-0.415-1.836-0.822c-0.926-0.384-1.572-0.82-1.939-1.309s-0.551-1.107-0.551-1.857
			c0-0.947,0.361-1.685,1.084-2.212c0.725-0.527,1.746-0.791,3.07-0.791c0.664,0,1.287,0.073,1.871,0.22
			c0.584,0.147,1.191,0.361,1.82,0.644l-0.943,2.266c-0.463-0.21-0.951-0.388-1.469-0.535c-0.516-0.146-0.936-0.22-1.262-0.22
			c-0.57,0-0.855,0.141-0.855,0.422c0,0.175,0.1,0.323,0.299,0.445c0.199,0.123,0.773,0.373,1.721,0.751
			c0.707,0.294,1.232,0.582,1.58,0.863c0.346,0.282,0.602,0.613,0.764,0.994C148.902,85.375,148.984,85.838,148.984,86.383z"/>
		<path fill="#4E4E4E" d="M154.939,86.914c0.469,0,1.029-0.117,1.682-0.352v2.563c-0.469,0.204-0.914,0.349-1.338,0.436
			c-0.426,0.087-0.922,0.131-1.49,0.131c-1.168,0-2.012-0.289-2.527-0.868c-0.516-0.578-0.773-1.467-0.773-2.666v-4.199h-1.219
			v-1.43l1.549-1.106l0.898-2.14h2.275v2.041h2.475v2.635h-2.475v3.966C153.996,86.584,154.311,86.914,154.939,86.914z"/>
		<path fill="#4E4E4E" d="M173.879,89.513h-4.607l-4.75-9.263h-0.08c0.111,1.457,0.168,2.569,0.168,3.337v5.926h-3.113V76.365h4.59
			l4.732,9.137h0.055c-0.084-1.325-0.125-2.389-0.125-3.192v-5.944h3.131V89.513z"/>
		<path fill="#4E4E4E" d="M183.5,89.513h-7.721V76.365h7.721v2.851h-4.207v2.068h3.896v2.851h-3.896v2.482h4.207V89.513z"/>
	</g>
</g>
<g>
	
		<radialGradient id="SVGID_9_" cx="3.5664" cy="759.0137" r="20.1134" gradientTransform="matrix(0.498 0 0 0.498 15.8475 -328.3509)" gradientUnits="userSpaceOnUse">
		<stop  offset="0" style="stop-color:#FFCF4F"/>
		<stop  offset="1" style="stop-color:#F4C236"/>
	</radialGradient>
	<path fill="url(#SVGID_9_)" d="M8.91,60.806h6.791c1.607,0,3.604-1.128,4.432-2.511l5.72-9.521
		c0.677-1.396,0.653-3.426-0.119-4.713l-3.378-5.592L8.91,60.806z"/>
	
		<radialGradient id="SVGID_10_" cx="-8.4854" cy="748.8008" r="27.6572" gradientTransform="matrix(0.498 0 0 0.498 15.8475 -328.3509)" gradientUnits="userSpaceOnUse">
		<stop  offset="0" style="stop-color:#08A960"/>
		<stop  offset="1" style="stop-color:#07914B"/>
	</radialGradient>
	<path fill="url(#SVGID_10_)" d="M16.209,33.32L1.108,58.569c-0.584,1.248,0.023,2.237,1.521,2.237H8.91l13.446-22.335L16.21,28.298
		C17.039,29.676,17.039,31.936,16.209,33.32"/>
	
		<radialGradient id="SVGID_11_" cx="0.9658" cy="709.1191" r="40.5378" gradientTransform="matrix(0.498 0 0 0.498 15.8475 -328.3509)" gradientUnits="userSpaceOnUse">
		<stop  offset="0" style="stop-color:#567FC0"/>
		<stop  offset="1" style="stop-color:#557FC0"/>
	</radialGradient>
	<path fill="url(#SVGID_11_)" d="M2.629,0.806c-1.614,0-2.254,1.133-1.424,2.511l24.529,40.745c0.772,1.288,0.795,3.317,0.119,4.713
		l5.963-9.925L8.914,0.806H2.629z"/>
	
		<radialGradient id="SVGID_12_" cx="13.0303" cy="699.1543" r="33.0577" gradientTransform="matrix(0.498 0 0 0.498 15.8475 -328.3509)" gradientUnits="userSpaceOnUse">
		<stop  offset="0" style="stop-color:#E14C40"/>
		<stop  offset="1" style="stop-color:#CD392D"/>
	</radialGradient>
	<path fill="url(#SVGID_12_)" d="M8.914,0.806l22.903,38.045l3.321-5.53c0.83-1.385,0.83-3.645,0-5.022L20.133,3.317
		c-0.828-1.378-2.825-2.511-4.432-2.511H8.914z"/>
	<g>
		<path fill="#4E4E4E" d="M56.878,44.791l-1.283-4h-4.913l-1.257,4H47.21l4.808-13h2.285l4.808,13H56.878z M55.041,38.791
			l-1.204-3.43c-0.088-0.234-0.209-0.57-0.365-1.074s-0.262-0.855-0.321-1.09c-0.158,0.721-0.39,1.449-0.694,2.305l-1.16,3.289
			H55.041z"/>
		<path fill="#4E4E4E" d="M64.618,34.409c0.416,0,0.759,0.029,1.028,0.088l-0.202,1.925c-0.293-0.07-0.598-0.105-0.914-0.105
			c-0.826,0-1.372,0.27-1.884,0.809s-0.645,1.239-0.645,2.101v5.565h-2v-10h1.303l0.272,2h0.105c0.322-1,0.743-1.286,1.261-1.626
			S64.02,34.409,64.618,34.409z"/>
		<path fill="#4E4E4E" d="M72.63,44.791l-0.413-2h-0.07c-0.469,1-0.94,1.076-1.415,1.289s-1.084,0.361-1.828,0.361
			c-0.955,0-1.701-0.238-2.237-0.754s-0.804-1.234-0.804-2.178c0-1.002,0.372-1.753,1.116-2.263s1.849-0.786,3.373-0.833l1.65-0.05
			v-0.519c0-0.621-0.116-1.085-0.406-1.394c-0.29-0.307-0.726-0.461-1.335-0.461c-0.498,0-0.968,0.073-1.425,0.22
			s-0.893,0.319-1.314,0.519l-0.667-1.477c0.527-0.275,1.105-0.484,1.732-0.629c0.627-0.143,1.219-0.215,1.776-0.215
			c1.236,0,2.117,0.27,2.747,0.809s0.893,1.386,0.893,2.54v7.033H72.63z M69.554,42.899c0.75,0,1.332-0.209,1.786-0.629
			c0.454-0.418,0.661-1.006,0.661-1.762v-0.844l-1.228,0.053c-0.973,0.035-1.67,0.197-2.113,0.488
			c-0.442,0.289-0.658,0.733-0.658,1.331c0,0.434,0.131,0.769,0.389,1.007C68.649,42.78,69.038,42.899,69.554,42.899z"/>
		<path fill="#4E4E4E" d="M80.009,44.481c-1.471,0-2.588-0.429-3.353-1.287s-1.147-2.091-1.147-3.696c0-1.635,0.4-2.892,1.2-3.771
			s1.956-1.318,3.467-1.318c1.025,0,1.948,0.19,2.769,0.571l-0.624,1.661c-0.873-0.34-1.594-0.51-2.162-0.51
			c-1.682,0-2.522,1.116-2.522,3.349c0,1.09,0.209,1.909,0.628,2.456c0.419,0.549,1.175,0.822,1.984,0.822
			c0.92,0,1.753-0.229,2.753-0.686v1.802c-1,0.217-0.906,0.372-1.324,0.466C81.257,44.434,80.606,44.481,80.009,44.481z"/>
		<path fill="#4E4E4E" d="M90.183,44.791l-0.412-2H89.7c-0.469,1-0.941,1.076-1.416,1.289s-1.084,0.361-1.828,0.361
			c-0.955,0-1.7-0.238-2.236-0.754s-0.805-1.234-0.805-2.178c0-1.002,0.373-1.753,1.117-2.263s2.071-0.786,3.595-0.833l1.874-0.05
			v-0.519c0-0.621-0.34-1.085-0.63-1.394c-0.29-0.307-0.837-0.461-1.447-0.461c-0.498,0-1.023,0.073-1.48,0.22
			s-0.921,0.319-1.343,0.519l-0.68-1.477c0.527-0.275,1.097-0.484,1.724-0.629c0.627-0.143,1.216-0.215,1.772-0.215
			c1.236,0,2.339,0.27,2.969,0.809c0.629,0.539,1.114,1.386,1.114,2.54v7.033H90.183z M87.106,42.899c0.75,0,1.556-0.209,2.01-0.629
			c0.454-0.418,0.885-1.006,0.885-1.762v-0.844l-1.451,0.053c-0.973,0.035-1.782,0.197-2.225,0.488
			c-0.442,0.289-0.715,0.733-0.715,1.331c0,0.434,0.104,0.769,0.361,1.007C86.229,42.78,86.591,42.899,87.106,42.899z"/>
		<path fill="#4E4E4E" d="M92.599,48.629c-0.621,0-0.598-0.073-1.598-0.22v-1.635c0,0.105,1.035,0.158,1.451,0.158
			c0.879,0,1.549-0.498,1.549-1.494V34.791h2V45.58c0,1.002-0.434,1.761-0.959,2.276C94.519,48.372,93.589,48.629,92.599,48.629z
			 M93.52,32.009c0-0.369,0.101-0.653,0.304-0.853c0.201-0.199,0.49-0.299,0.865-0.299c0.363,0,0.646,0.1,0.848,0.299
			c0.203,0.199,0.304,0.483,0.304,0.853c0,0.352-0.101,0.628-0.304,0.831c-0.201,0.201-0.484,0.303-0.848,0.303
			c-0.375,0-0.664-0.102-0.865-0.303C93.62,32.637,93.52,32.361,93.52,32.009z"/>
		<path fill="#4E4E4E" d="M104.616,44.791l-0.289-2h-0.105c-0.287,1-0.696,0.926-1.227,1.184s-1.135,0.447-1.814,0.447
			c-1.178,0-1.893-0.264-2.473-0.85s-0.707-1.443-0.707-2.633v-6.148h2v5.788c0,0.744,0.03,1.303,0.335,1.674
			c0.305,0.373,0.72,0.559,1.37,0.559c0.867,0,1.391-0.26,1.798-0.777c0.407-0.52,0.497-1.388,0.497-2.606v-4.637h2v10H104.616z"/>
		<path fill="#4E4E4E" d="M120.001,44.791h-9v-2.05l3.502-3.331c0.979-1.002,1.721-1.712,2.041-2.132
			c0.318-0.418,0.599-0.813,0.745-1.182s0.243-0.765,0.243-1.187c0-0.58-0.162-1.037-0.512-1.371
			c-0.348-0.334-0.824-0.501-1.439-0.501c-0.492,0-0.966,0.091-1.425,0.272c-0.461,0.182-0.991,0.51-1.595,0.984l-1.115-1.362
			c0.715-0.604,1.41-1.031,2.084-1.283s1.392-0.378,2.153-0.378c1.195,0,2.153,0.312,2.874,0.937
			c0.721,0.623,1.081,1.463,1.081,2.518c0,0.58-0.104,1.131-0.312,1.652c-0.209,0.521-0.527,1.059-0.959,1.613
			c-0.43,0.553-1.14,1.302-2.142,2.245l-2.226,2.162v0.393h6V44.791z"/>
		<path fill="#4E4E4E" d="M129.462,37.88c0,2.232-0.359,3.891-1.077,4.975s-1.815,1.626-3.292,1.626c-1.43,0-2.514-0.56-3.252-1.679
			s-1.107-2.76-1.107-4.922c0-2.268,0.359-3.938,1.077-5.015c0.718-1.074,1.812-1.612,3.282-1.612c1.436,0,2.523,0.563,3.262,1.688
			S129.462,35.712,129.462,37.88z M122.825,37.88c0,1.752,0.181,3.003,0.541,3.753s0.936,1.125,1.727,1.125s1.37-0.381,1.736-1.143
			s0.549-2.007,0.549-3.735c0-1.723-0.183-2.969-0.549-3.739s-0.945-1.156-1.736-1.156s-1.366,0.378-1.727,1.134
			S122.825,36.128,122.825,37.88z"/>
		<path fill="#4E4E4E" d="M136.001,44.791h-2v-8.782c0-0.99,0.086-1.775,0.133-2.355c-0.135,0.141-0.27,0.296-0.467,0.466
			c-0.195,0.17-0.838,0.709-1.957,1.617l-1.029-1.143l3.787-2.803h1.533V44.791z"/>
		<path fill="#4E4E4E" d="M149.001,41.791h-2v3h-2v-3h-6v-1.88l5.922-8.12h2.078v8h2V41.791z M145.001,39.791v-3.229
			c0-1.148-0.049-1.771,0.01-2.771h-0.07c-0.164,0-0.422,0.832-0.773,1.383l-3.189,4.617H145.001z"/>
	</g>
	<g>
		<path fill="#4E4E4E" d="M52.912,18.621h5.613v7.086c-1.524,0.527-3.199,0.791-5.026,0.791c-2.004,0-3.554-0.587-4.647-1.762
			c-1.094-1.175-1.641-2.851-1.641-5.027c0-2.122,0.599-3.773,1.797-4.955c1.198-1.181,2.876-1.771,5.035-1.771
			c0.818,0,1.59,0.078,2.317,0.233c0.727,0.156,1.359,0.354,1.899,0.594l-1.112,2.788c-0.937-0.468-1.966-0.701-3.086-0.701
			c-1.026,0-1.819,0.337-2.379,1.011c-0.561,0.675-0.841,1.638-0.841,2.891c0,1.229,0.253,2.166,0.761,2.81
			c0.507,0.645,1.238,0.967,2.192,0.967c0.522,0,1.002-0.051,1.441-0.153v-2.059h-2.322V18.621z"/>
		<path fill="#4E4E4E" d="M71.303,19.466c0,2.194-0.598,3.885-1.792,5.072s-2.875,1.78-5.039,1.78h-4.208V13.171h4.501
			c2.087,0,3.699,0.54,4.834,1.619C70.735,15.869,71.303,17.428,71.303,19.466z M67.656,19.592c0-1.205-0.236-2.098-0.707-2.68
			c-0.472-0.582-1.188-0.873-2.148-0.873h-1.023v7.365h0.783c1.067,0,1.851-0.313,2.349-0.939S67.656,20.881,67.656,19.592z"/>
		<path fill="#4E4E4E" d="M77.944,18.621h5.613v7.086c-1.524,0.527-3.199,0.791-5.026,0.791c-2.004,0-3.554-0.587-4.647-1.762
			c-1.094-1.175-1.641-2.851-1.641-5.027c0-2.122,0.599-3.773,1.797-4.955c1.198-1.181,2.876-1.771,5.035-1.771
			c0.818,0,1.59,0.078,2.317,0.233c0.727,0.156,1.359,0.354,1.899,0.594l-1.112,2.788c-0.937-0.468-1.966-0.701-3.086-0.701
			c-1.026,0-1.819,0.337-2.379,1.011c-0.561,0.675-0.841,1.638-0.841,2.891c0,1.229,0.253,2.166,0.761,2.81
			c0.507,0.645,1.238,0.967,2.192,0.967c0.522,0,1.002-0.051,1.441-0.153v-2.059h-2.322V18.621z"/>
		<path fill="#4E4E4E" d="M100.158,19.466c0,2.194-0.598,3.885-1.793,5.072s-2.875,1.78-5.039,1.78h-4.208V13.171h4.5
			c2.088,0,3.699,0.54,4.836,1.619C99.59,15.869,100.158,17.428,100.158,19.466z M96.51,19.592c0-1.205-0.234-2.098-0.707-2.68
			c-0.471-0.582-1.188-0.873-2.146-0.873h-1.023v7.365h0.783c1.066,0,1.85-0.313,2.348-0.939S96.51,20.881,96.51,19.592z"/>
		<path fill="#4E4E4E" d="M106.238,26.498c-1.678,0-2.982-0.451-3.91-1.353s-1.393-2.187-1.393-3.854
			c0-1.72,0.432-3.041,1.291-3.961s2.088-1.38,3.682-1.38c1.52,0,2.691,0.4,3.52,1.201c0.826,0.8,1.24,1.953,1.24,3.458v1.564
			h-6.219c0.023,0.57,0.23,1.016,0.619,1.34s0.918,0.486,1.588,0.486c0.611,0,1.172-0.059,1.686-0.176
			c0.514-0.117,1.068-0.316,1.668-0.598v2.527c-0.547,0.282-1.109,0.477-1.689,0.584C107.738,26.444,107.045,26.498,106.238,26.498z
			 M106.033,18.342c-0.408,0-0.752,0.13-1.027,0.391s-0.438,0.67-0.484,1.228h2.988c-0.012-0.492-0.15-0.884-0.414-1.178
			C106.832,18.489,106.479,18.342,106.033,18.342z"/>
		<path fill="#4E4E4E" d="M114.365,26.318l-3.844-10.188h3.629l1.709,6.025c0.006,0.03,0.018,0.081,0.035,0.153
			c0.018,0.072,0.035,0.158,0.053,0.256c0.02,0.099,0.035,0.204,0.049,0.315c0.016,0.111,0.023,0.214,0.023,0.31h0.063
			c0-0.312,0.053-0.65,0.16-1.016l1.787-6.043h3.621l-3.844,10.188H114.365z"/>
		<path fill="#4E4E4E" d="M125.605,26.318h-3.461V13.171h7.686v2.851h-4.225v2.509h3.896v2.85h-3.896V26.318z"/>
		<path fill="#4E4E4E" d="M135.715,26.498c-1.678,0-2.98-0.451-3.908-1.353c-0.93-0.902-1.393-2.187-1.393-3.854
			c0-1.72,0.43-3.041,1.289-3.961c0.861-0.92,2.088-1.38,3.684-1.38c1.518,0,2.689,0.4,3.518,1.201s1.24,1.953,1.24,3.458v1.564
			h-6.217c0.023,0.57,0.23,1.016,0.617,1.34c0.389,0.324,0.918,0.486,1.588,0.486c0.611,0,1.174-0.059,1.686-0.176
			c0.514-0.117,1.07-0.316,1.668-0.598v2.527c-0.545,0.282-1.107,0.477-1.689,0.584S136.521,26.498,135.715,26.498z M135.512,18.342
			c-0.41,0-0.752,0.13-1.027,0.391c-0.277,0.261-0.438,0.67-0.486,1.228h2.99c-0.014-0.492-0.15-0.884-0.414-1.178
			C136.311,18.489,135.955,18.342,135.512,18.342z"/>
		<path fill="#4E4E4E" d="M148.984,23.189c0,1.091-0.369,1.916-1.104,2.473c-0.736,0.557-1.791,0.836-3.166,0.836
			c-0.748,0-1.396-0.041-1.949-0.121c-0.551-0.081-1.115-0.229-1.689-0.445v-2.814c0.539,0.24,1.131,0.438,1.773,0.593
			c0.645,0.156,1.219,0.234,1.723,0.234c0.752,0,1.129-0.174,1.129-0.521c0-0.18-0.105-0.34-0.316-0.481
			c-0.209-0.141-0.822-0.415-1.836-0.823c-0.926-0.384-1.572-0.82-1.939-1.309c-0.367-0.488-0.551-1.107-0.551-1.857
			c0-0.947,0.361-1.685,1.084-2.212c0.725-0.528,1.746-0.792,3.07-0.792c0.664,0,1.287,0.074,1.871,0.22
			c0.584,0.147,1.191,0.361,1.82,0.643l-0.943,2.266c-0.463-0.21-0.951-0.388-1.469-0.535c-0.516-0.147-0.936-0.22-1.262-0.22
			c-0.57,0-0.855,0.141-0.855,0.422c0,0.174,0.1,0.323,0.299,0.445c0.199,0.123,0.773,0.373,1.721,0.751
			c0.707,0.294,1.232,0.582,1.58,0.863c0.346,0.282,0.602,0.613,0.764,0.994C148.902,22.181,148.984,22.644,148.984,23.189z"/>
		<path fill="#4E4E4E" d="M154.939,23.72c0.469,0,1.029-0.117,1.682-0.351v2.563c-0.469,0.204-0.914,0.349-1.338,0.436
			c-0.426,0.087-0.922,0.13-1.49,0.13c-1.168,0-2.012-0.289-2.527-0.868s-0.773-1.467-0.773-2.666v-4.2h-1.219v-1.43l1.549-1.106
			l0.898-2.14h2.275v2.041h2.475v2.635h-2.475v3.966C153.996,23.39,154.311,23.72,154.939,23.72z"/>
		<path fill="#4E4E4E" d="M173.879,26.318h-4.607l-4.75-9.262h-0.08c0.111,1.457,0.168,2.569,0.168,3.336v5.926h-3.113V13.171h4.59
			l4.732,9.136h0.055c-0.084-1.325-0.125-2.389-0.125-3.192v-5.944h3.131V26.318z"/>
		<path fill="#4E4E4E" d="M183.5,26.318h-7.721V13.171h7.721v2.851h-4.207v2.068h3.896v2.851h-3.896v2.482h4.207V26.318z"/>
	</g>
</g>
</svg>
